<?xml version="1.0" encoding="utf-8"?>
<!-- Uploaded to: SVG Repo, www.svgrepo.com, Generator: SVG Repo Mixer Tools -->
<svg fill="#000000" height="800px" width="800px" version="1.1" id="_x31_" xmlns="http://www.w3.org/2000/svg" xmlns:xlink="http://www.w3.org/1999/xlink" 
	 viewBox="0 0 128 128" xml:space="preserve">
<g>
	<circle cx="27.3" cy="68.9" r="7.8"/>
	<path d="M41.5,75.8c0,0,5.4,0,11.5,0v2.4h50.3h9.9h8.5c0-8.1-3.7-14.7-8.5-15.3v0L53,57.5v2c-0.5,0-0.9,0-1.4,0
		c-0.4-0.1-1.4,0-1.5,0c-6.5,0-11.9,4.8-13,10.9c0,0-0.1,0.8-0.1,1C37.1,73.8,39,75.8,41.5,75.8z"/>
	<polygon points="14.5,81.2 14.5,58.7 4.3,58.7 4.3,114 14.5,114 14.5,91.4 112.5,91.4 112.5,114 122.7,114 122.7,91.4 122.7,81.3 
		122.7,81.2 	"/>
</g>
</svg>